<svg width="160" height="200" viewBox="0 0 160 200" xmlns="http://www.w3.org/2000/svg">
<rect width="100%" height="100%" fill="black"/>
<circle cx="60" cy="18" r="3" fill="#3ACFFF"/>
<circle cx="84" cy="24" r="3" fill="#3ACFFF"/>
<circle cx="90" cy="24" r="3" fill="#3ACFFF"/>
<circle cx="96" cy="24" r="3" fill="#3ACFFF"/>
<circle cx="84" cy="30" r="3" fill="#3ACFFF"/>
<circle cx="90" cy="30" r="3" fill="#3ACFFF"/>
<circle cx="36" cy="36" r="3" fill="#3ACFFF"/>
<circle cx="84" cy="36" r="3" fill="#3ACFFF"/>
<circle cx="84" cy="42" r="3" fill="#3ACFFF"/>
<circle cx="48" cy="48" r="3" fill="#3ACFFF"/>
<circle cx="72" cy="48" r="3" fill="#3ACFFF"/>
<circle cx="78" cy="48" r="3" fill="#3ACFFF"/>
<circle cx="84" cy="48" r="3" fill="#3ACFFF"/>
<circle cx="90" cy="48" r="3" fill="#3ACFFF"/>
<circle cx="96" cy="48" r="3" fill="#3ACFFF"/>
<circle cx="66" cy="54" r="3" fill="#3ACFFF"/>
<circle cx="72" cy="54" r="3" fill="#3ACFFF"/>
<circle cx="78" cy="54" r="3" fill="#3ACFFF"/>
<circle cx="84" cy="54" r="3" fill="#3ACFFF"/>
<circle cx="90" cy="54" r="3" fill="#3ACFFF"/>
<circle cx="96" cy="54" r="3" fill="#3ACFFF"/>
<circle cx="102" cy="54" r="3" fill="#3ACFFF"/>
<circle cx="66" cy="60" r="3" fill="#3ACFFF"/>
<circle cx="72" cy="60" r="3" fill="#3ACFFF"/>
<circle cx="78" cy="60" r="3" fill="#3ACFFF"/>
<circle cx="84" cy="60" r="3" fill="#3ACFFF"/>
<circle cx="90" cy="60" r="3" fill="#3ACFFF"/>
<circle cx="96" cy="60" r="3" fill="#3ACFFF"/>
<circle cx="108" cy="60" r="3" fill="#3ACFFF"/>
<circle cx="60" cy="66" r="3" fill="#3ACFFF"/>
<circle cx="66" cy="66" r="3" fill="#3ACFFF"/>
<circle cx="72" cy="66" r="3" fill="#3ACFFF"/>
<circle cx="78" cy="66" r="3" fill="#3ACFFF"/>
<circle cx="84" cy="66" r="3" fill="#3ACFFF"/>
<circle cx="90" cy="66" r="3" fill="#3ACFFF"/>
<circle cx="108" cy="66" r="3" fill="#3ACFFF"/>
<circle cx="114" cy="66" r="3" fill="#3ACFFF"/>
<circle cx="60" cy="72" r="3" fill="#3ACFFF"/>
<circle cx="66" cy="72" r="3" fill="#3ACFFF"/>
<circle cx="78" cy="72" r="3" fill="#3ACFFF"/>
<circle cx="84" cy="72" r="3" fill="#3ACFFF"/>
<circle cx="90" cy="72" r="3" fill="#3ACFFF"/>
<circle cx="96" cy="72" r="3" fill="#3ACFFF"/>
<circle cx="108" cy="72" r="3" fill="#3ACFFF"/>
<circle cx="114" cy="72" r="3" fill="#3ACFFF"/>
<circle cx="60" cy="78" r="3" fill="#3ACFFF"/>
<circle cx="78" cy="78" r="3" fill="#3ACFFF"/>
<circle cx="84" cy="78" r="3" fill="#3ACFFF"/>
<circle cx="90" cy="78" r="3" fill="#3ACFFF"/>
<circle cx="96" cy="78" r="3" fill="#3ACFFF"/>
<circle cx="114" cy="78" r="3" fill="#3ACFFF"/>
<circle cx="120" cy="78" r="3" fill="#3ACFFF"/>
<circle cx="48" cy="84" r="3" fill="#3ACFFF"/>
<circle cx="54" cy="84" r="3" fill="#3ACFFF"/>
<circle cx="72" cy="84" r="3" fill="#3ACFFF"/>
<circle cx="78" cy="84" r="3" fill="#3ACFFF"/>
<circle cx="84" cy="84" r="3" fill="#3ACFFF"/>
<circle cx="90" cy="84" r="3" fill="#3ACFFF"/>
<circle cx="96" cy="84" r="3" fill="#3ACFFF"/>
<circle cx="120" cy="84" r="3" fill="#3ACFFF"/>
<circle cx="48" cy="90" r="3" fill="#3ACFFF"/>
<circle cx="54" cy="90" r="3" fill="#3ACFFF"/>
<circle cx="72" cy="90" r="3" fill="#3ACFFF"/>
<circle cx="78" cy="90" r="3" fill="#3ACFFF"/>
<circle cx="84" cy="90" r="3" fill="#3ACFFF"/>
<circle cx="90" cy="90" r="3" fill="#3ACFFF"/>
<circle cx="96" cy="90" r="3" fill="#3ACFFF"/>
<circle cx="120" cy="90" r="3" fill="#3ACFFF"/>
<circle cx="126" cy="90" r="3" fill="#3ACFFF"/>
<circle cx="48" cy="96" r="3" fill="#3ACFFF"/>
<circle cx="72" cy="96" r="3" fill="#3ACFFF"/>
<circle cx="78" cy="96" r="3" fill="#3ACFFF"/>
<circle cx="84" cy="96" r="3" fill="#3ACFFF"/>
<circle cx="90" cy="96" r="3" fill="#3ACFFF"/>
<circle cx="126" cy="96" r="3" fill="#3ACFFF"/>
<circle cx="48" cy="102" r="3" fill="#3ACFFF"/>
<circle cx="72" cy="102" r="3" fill="#3ACFFF"/>
<circle cx="78" cy="102" r="3" fill="#3ACFFF"/>
<circle cx="84" cy="102" r="3" fill="#3ACFFF"/>
<circle cx="90" cy="102" r="3" fill="#3ACFFF"/>
<circle cx="96" cy="102" r="3" fill="#3ACFFF"/>
<circle cx="132" cy="102" r="3" fill="#3ACFFF"/>
<circle cx="72" cy="108" r="3" fill="#3ACFFF"/>
<circle cx="78" cy="108" r="3" fill="#3ACFFF"/>
<circle cx="84" cy="108" r="3" fill="#3ACFFF"/>
<circle cx="90" cy="108" r="3" fill="#3ACFFF"/>
<circle cx="96" cy="108" r="3" fill="#3ACFFF"/>
<circle cx="72" cy="114" r="3" fill="#3ACFFF"/>
<circle cx="78" cy="114" r="3" fill="#3ACFFF"/>
<circle cx="90" cy="114" r="3" fill="#3ACFFF"/>
<circle cx="114" cy="114" r="3" fill="#3ACFFF"/>
<circle cx="72" cy="120" r="3" fill="#3ACFFF"/>
<circle cx="96" cy="120" r="3" fill="#3ACFFF"/>
<circle cx="72" cy="126" r="3" fill="#3ACFFF"/>
<circle cx="96" cy="126" r="3" fill="#3ACFFF"/>
<circle cx="72" cy="132" r="3" fill="#3ACFFF"/>
<circle cx="96" cy="132" r="3" fill="#3ACFFF"/>
<circle cx="72" cy="138" r="3" fill="#3ACFFF"/>
<circle cx="72" cy="144" r="3" fill="#3ACFFF"/>
<circle cx="96" cy="144" r="3" fill="#3ACFFF"/>
<circle cx="72" cy="150" r="3" fill="#3ACFFF"/>
<circle cx="96" cy="150" r="3" fill="#3ACFFF"/>
<circle cx="72" cy="156" r="3" fill="#3ACFFF"/>
<circle cx="96" cy="156" r="3" fill="#3ACFFF"/>
<circle cx="72" cy="162" r="3" fill="#3ACFFF"/>
<circle cx="96" cy="162" r="3" fill="#3ACFFF"/>
<circle cx="96" cy="174" r="3" fill="#3ACFFF"/>
<circle cx="108" cy="180" r="3" fill="#3ACFFF"/>
</svg>