<svg width="280" height="280" viewBox="0 0 280 280" xmlns="http://www.w3.org/2000/svg">
<circle cx="140" cy="140" r="133" fill="#2962FF"/>
<circle cx="164.5" cy="10.5" r="5" fill="none" stroke="white" stroke-width="1"/>
<circle cx="94.5" cy="17.5" r="5" fill="none" stroke="white" stroke-width="1"/>
<circle cx="108.5" cy="17.5" r="5" fill="none" stroke="white" stroke-width="1"/>
<circle cx="115.5" cy="17.5" r="5" fill="white"/>
<circle cx="178.5" cy="17.5" r="5" fill="none" stroke="white" stroke-width="1"/>
<circle cx="185.5" cy="17.5" r="5" fill="white"/>
<circle cx="80.5" cy="24.5" r="5" fill="white"/>
<circle cx="87.5" cy="24.5" r="5" fill="none" stroke="white" stroke-width="1"/>
<circle cx="94.5" cy="24.5" r="5" fill="none" stroke="white" stroke-width="1"/>
<circle cx="122.5" cy="24.5" r="5" fill="white"/>
<circle cx="129.5" cy="24.5" r="5" fill="white"/>
<circle cx="136.5" cy="24.5" r="5" fill="white"/>
<circle cx="157.5" cy="24.5" r="5" fill="none" stroke="white" stroke-width="1"/>
<circle cx="185.5" cy="24.5" r="5" fill="none" stroke="white" stroke-width="1"/>
<circle cx="192.5" cy="24.5" r="5" fill="none" stroke="white" stroke-width="1"/>
<circle cx="199.5" cy="24.5" r="5" fill="none" stroke="white" stroke-width="1"/>
<circle cx="66.5" cy="31.5" r="5" fill="none" stroke="white" stroke-width="1"/>
<circle cx="73.5" cy="31.5" r="5" fill="white"/>
<circle cx="80.5" cy="31.5" r="5" fill="white"/>
<circle cx="87.5" cy="31.5" r="5" fill="white"/>
<circle cx="94.5" cy="31.5" r="5" fill="none" stroke="white" stroke-width="1"/>
<circle cx="101.5" cy="31.5" r="5" fill="none" stroke="white" stroke-width="1"/>
<circle cx="122.5" cy="31.5" r="5" fill="none" stroke="white" stroke-width="1"/>
<circle cx="129.5" cy="31.5" r="5" fill="none" stroke="white" stroke-width="1"/>
<circle cx="136.5" cy="31.5" r="5" fill="white"/>
<circle cx="185.5" cy="31.5" r="5" fill="none" stroke="white" stroke-width="1"/>
<circle cx="206.5" cy="31.5" r="5" fill="white"/>
<circle cx="213.5" cy="31.5" r="5" fill="none" stroke="white" stroke-width="1"/>
<circle cx="59.5" cy="38.5" r="5" fill="white"/>
<circle cx="66.5" cy="38.5" r="5" fill="none" stroke="white" stroke-width="1"/>
<circle cx="73.5" cy="38.5" r="5" fill="white"/>
<circle cx="94.5" cy="38.5" r="5" fill="white"/>
<circle cx="115.5" cy="38.5" r="5" fill="none" stroke="white" stroke-width="1"/>
<circle cx="122.5" cy="38.5" r="5" fill="none" stroke="white" stroke-width="1"/>
<circle cx="129.5" cy="38.5" r="5" fill="none" stroke="white" stroke-width="1"/>
<circle cx="136.5" cy="38.5" r="5" fill="none" stroke="white" stroke-width="1"/>
<circle cx="192.5" cy="38.5" r="5" fill="white"/>
<circle cx="199.5" cy="38.5" r="5" fill="none" stroke="white" stroke-width="1"/>
<circle cx="206.5" cy="38.5" r="5" fill="white"/>
<circle cx="213.5" cy="38.5" r="5" fill="none" stroke="white" stroke-width="1"/>
<circle cx="220.5" cy="38.5" r="5" fill="white"/>
<circle cx="52.5" cy="45.5" r="5" fill="none" stroke="white" stroke-width="1"/>
<circle cx="59.5" cy="45.5" r="5" fill="white"/>
<circle cx="87.5" cy="45.5" r="5" fill="none" stroke="white" stroke-width="1"/>
<circle cx="108.5" cy="45.5" r="5" fill="none" stroke="white" stroke-width="1"/>
<circle cx="115.5" cy="45.5" r="5" fill="none" stroke="white" stroke-width="1"/>
<circle cx="122.5" cy="45.5" r="5" fill="white"/>
<circle cx="129.5" cy="45.5" r="5" fill="none" stroke="white" stroke-width="1"/>
<circle cx="171.5" cy="45.5" r="5" fill="none" stroke="white" stroke-width="1"/>
<circle cx="178.5" cy="45.5" r="5" fill="white"/>
<circle cx="185.5" cy="45.5" r="5" fill="none" stroke="white" stroke-width="1"/>
<circle cx="192.5" cy="45.5" r="5" fill="white"/>
<circle cx="199.5" cy="45.5" r="5" fill="none" stroke="white" stroke-width="1"/>
<circle cx="206.5" cy="45.5" r="5" fill="white"/>
<circle cx="213.5" cy="45.5" r="5" fill="none" stroke="white" stroke-width="1"/>
<circle cx="220.5" cy="45.5" r="5" fill="none" stroke="white" stroke-width="1"/>
<circle cx="227.5" cy="45.5" r="5" fill="none" stroke="white" stroke-width="1"/>
<circle cx="45.5" cy="52.5" r="5" fill="none" stroke="white" stroke-width="1"/>
<circle cx="52.5" cy="52.5" r="5" fill="none" stroke="white" stroke-width="1"/>
<circle cx="73.5" cy="52.5" r="5" fill="white"/>
<circle cx="108.5" cy="52.5" r="5" fill="none" stroke="white" stroke-width="1"/>
<circle cx="115.5" cy="52.5" r="5" fill="white"/>
<circle cx="171.5" cy="52.5" r="5" fill="none" stroke="white" stroke-width="1"/>
<circle cx="178.5" cy="52.5" r="5" fill="none" stroke="white" stroke-width="1"/>
<circle cx="185.5" cy="52.5" r="5" fill="none" stroke="white" stroke-width="1"/>
<circle cx="192.5" cy="52.5" r="5" fill="white"/>
<circle cx="199.5" cy="52.5" r="5" fill="none" stroke="white" stroke-width="1"/>
<circle cx="206.5" cy="52.5" r="5" fill="none" stroke="white" stroke-width="1"/>
<circle cx="213.5" cy="52.5" r="5" fill="none" stroke="white" stroke-width="1"/>
<circle cx="220.5" cy="52.5" r="5" fill="white"/>
<circle cx="227.5" cy="52.5" r="5" fill="white"/>
<circle cx="234.5" cy="52.5" r="5" fill="white"/>
<circle cx="38.5" cy="59.5" r="5" fill="none" stroke="white" stroke-width="1"/>
<circle cx="45.5" cy="59.5" r="5" fill="none" stroke="white" stroke-width="1"/>
<circle cx="52.5" cy="59.5" r="5" fill="white"/>
<circle cx="66.5" cy="59.5" r="5" fill="none" stroke="white" stroke-width="1"/>
<circle cx="73.5" cy="59.5" r="5" fill="none" stroke="white" stroke-width="1"/>
<circle cx="80.5" cy="59.5" r="5" fill="none" stroke="white" stroke-width="1"/>
<circle cx="101.5" cy="59.5" r="5" fill="white"/>
<circle cx="136.5" cy="59.5" r="5" fill="none" stroke="white" stroke-width="1"/>
<circle cx="164.5" cy="59.5" r="5" fill="white"/>
<circle cx="171.5" cy="59.5" r="5" fill="white"/>
<circle cx="185.5" cy="59.5" r="5" fill="none" stroke="white" stroke-width="1"/>
<circle cx="192.5" cy="59.5" r="5" fill="none" stroke="white" stroke-width="1"/>
<circle cx="199.5" cy="59.5" r="5" fill="none" stroke="white" stroke-width="1"/>
<circle cx="206.5" cy="59.5" r="5" fill="none" stroke="white" stroke-width="1"/>
<circle cx="213.5" cy="59.5" r="5" fill="white"/>
<circle cx="220.5" cy="59.5" r="5" fill="none" stroke="white" stroke-width="1"/>
<circle cx="227.5" cy="59.5" r="5" fill="white"/>
<circle cx="234.5" cy="59.5" r="5" fill="none" stroke="white" stroke-width="1"/>
<circle cx="241.5" cy="59.5" r="5" fill="white"/>
<circle cx="31.5" cy="66.5" r="5" fill="none" stroke="white" stroke-width="1"/>
<circle cx="38.5" cy="66.5" r="5" fill="white"/>
<circle cx="45.5" cy="66.5" r="5" fill="white"/>
<circle cx="52.5" cy="66.5" r="5" fill="white"/>
<circle cx="59.5" cy="66.5" r="5" fill="white"/>
<circle cx="66.5" cy="66.5" r="5" fill="none" stroke="white" stroke-width="1"/>
<circle cx="73.5" cy="66.5" r="5" fill="none" stroke="white" stroke-width="1"/>
<circle cx="171.5" cy="66.5" r="5" fill="none" stroke="white" stroke-width="1"/>
<circle cx="178.5" cy="66.5" r="5" fill="none" stroke="white" stroke-width="1"/>
<circle cx="192.5" cy="66.5" r="5" fill="none" stroke="white" stroke-width="1"/>
<circle cx="199.5" cy="66.5" r="5" fill="none" stroke="white" stroke-width="1"/>
<circle cx="206.5" cy="66.5" r="5" fill="white"/>
<circle cx="213.5" cy="66.5" r="5" fill="none" stroke="white" stroke-width="1"/>
<circle cx="220.5" cy="66.5" r="5" fill="white"/>
<circle cx="227.5" cy="66.5" r="5" fill="none" stroke="white" stroke-width="1"/>
<circle cx="234.5" cy="66.5" r="5" fill="none" stroke="white" stroke-width="1"/>
<circle cx="241.5" cy="66.5" r="5" fill="none" stroke="white" stroke-width="1"/>
<circle cx="248.5" cy="66.5" r="5" fill="none" stroke="white" stroke-width="1"/>
<circle cx="31.5" cy="73.5" r="5" fill="none" stroke="white" stroke-width="1"/>
<circle cx="38.5" cy="73.5" r="5" fill="white"/>
<circle cx="45.5" cy="73.5" r="5" fill="white"/>
<circle cx="52.5" cy="73.5" r="5" fill="white"/>
<circle cx="59.5" cy="73.5" r="5" fill="white"/>
<circle cx="66.5" cy="73.5" r="5" fill="none" stroke="white" stroke-width="1"/>
<circle cx="73.5" cy="73.5" r="5" fill="none" stroke="white" stroke-width="1"/>
<circle cx="171.5" cy="73.5" r="5" fill="none" stroke="white" stroke-width="1"/>
<circle cx="192.5" cy="73.5" r="5" fill="white"/>
<circle cx="199.5" cy="73.5" r="5" fill="none" stroke="white" stroke-width="1"/>
<circle cx="206.5" cy="73.5" r="5" fill="none" stroke="white" stroke-width="1"/>
<circle cx="213.5" cy="73.5" r="5" fill="white"/>
<circle cx="220.5" cy="73.5" r="5" fill="none" stroke="white" stroke-width="1"/>
<circle cx="227.5" cy="73.5" r="5" fill="none" stroke="white" stroke-width="1"/>
<circle cx="234.5" cy="73.5" r="5" fill="none" stroke="white" stroke-width="1"/>
<circle cx="241.5" cy="73.5" r="5" fill="white"/>
<circle cx="248.5" cy="73.5" r="5" fill="none" stroke="white" stroke-width="1"/>
<circle cx="24.5" cy="80.5" r="5" fill="white"/>
<circle cx="31.5" cy="80.5" r="5" fill="none" stroke="white" stroke-width="1"/>
<circle cx="38.5" cy="80.5" r="5" fill="white"/>
<circle cx="45.5" cy="80.5" r="5" fill="white"/>
<circle cx="59.5" cy="80.5" r="5" fill="none" stroke="white" stroke-width="1"/>
<circle cx="150.5" cy="80.5" r="5" fill="white"/>
<circle cx="157.5" cy="80.5" r="5" fill="white"/>
<circle cx="171.5" cy="80.5" r="5" fill="none" stroke="white" stroke-width="1"/>
<circle cx="178.5" cy="80.5" r="5" fill="white"/>
<circle cx="185.5" cy="80.5" r="5" fill="none" stroke="white" stroke-width="1"/>
<circle cx="192.5" cy="80.5" r="5" fill="none" stroke="white" stroke-width="1"/>
<circle cx="199.5" cy="80.5" r="5" fill="none" stroke="white" stroke-width="1"/>
<circle cx="206.5" cy="80.5" r="5" fill="white"/>
<circle cx="213.5" cy="80.5" r="5" fill="white"/>
<circle cx="220.5" cy="80.5" r="5" fill="none" stroke="white" stroke-width="1"/>
<circle cx="227.5" cy="80.5" r="5" fill="none" stroke="white" stroke-width="1"/>
<circle cx="241.5" cy="80.5" r="5" fill="none" stroke="white" stroke-width="1"/>
<circle cx="248.5" cy="80.5" r="5" fill="none" stroke="white" stroke-width="1"/>
<circle cx="255.5" cy="80.5" r="5" fill="none" stroke="white" stroke-width="1"/>
<circle cx="24.5" cy="87.5" r="5" fill="none" stroke="white" stroke-width="1"/>
<circle cx="31.5" cy="87.5" r="5" fill="white"/>
<circle cx="38.5" cy="87.5" r="5" fill="none" stroke="white" stroke-width="1"/>
<circle cx="45.5" cy="87.5" r="5" fill="white"/>
<circle cx="59.5" cy="87.5" r="5" fill="white"/>
<circle cx="157.5" cy="87.5" r="5" fill="white"/>
<circle cx="171.5" cy="87.5" r="5" fill="none" stroke="white" stroke-width="1"/>
<circle cx="178.5" cy="87.5" r="5" fill="none" stroke="white" stroke-width="1"/>
<circle cx="185.5" cy="87.5" r="5" fill="none" stroke="white" stroke-width="1"/>
<circle cx="192.5" cy="87.5" r="5" fill="white"/>
<circle cx="206.5" cy="87.5" r="5" fill="none" stroke="white" stroke-width="1"/>
<circle cx="213.5" cy="87.5" r="5" fill="none" stroke="white" stroke-width="1"/>
<circle cx="227.5" cy="87.5" r="5" fill="none" stroke="white" stroke-width="1"/>
<circle cx="234.5" cy="87.5" r="5" fill="white"/>
<circle cx="241.5" cy="87.5" r="5" fill="white"/>
<circle cx="248.5" cy="87.5" r="5" fill="none" stroke="white" stroke-width="1"/>
<circle cx="255.5" cy="87.5" r="5" fill="white"/>
<circle cx="17.5" cy="94.5" r="5" fill="none" stroke="white" stroke-width="1"/>
<circle cx="24.5" cy="94.5" r="5" fill="none" stroke="white" stroke-width="1"/>
<circle cx="31.5" cy="94.5" r="5" fill="white"/>
<circle cx="157.5" cy="94.5" r="5" fill="none" stroke="white" stroke-width="1"/>
<circle cx="164.5" cy="94.5" r="5" fill="none" stroke="white" stroke-width="1"/>
<circle cx="171.5" cy="94.5" r="5" fill="none" stroke="white" stroke-width="1"/>
<circle cx="178.5" cy="94.5" r="5" fill="none" stroke="white" stroke-width="1"/>
<circle cx="185.5" cy="94.5" r="5" fill="white"/>
<circle cx="206.5" cy="94.5" r="5" fill="none" stroke="white" stroke-width="1"/>
<circle cx="234.5" cy="94.5" r="5" fill="white"/>
<circle cx="241.5" cy="94.5" r="5" fill="white"/>
<circle cx="248.5" cy="94.5" r="5" fill="none" stroke="white" stroke-width="1"/>
<circle cx="255.5" cy="94.5" r="5" fill="white"/>
<circle cx="262.5" cy="94.5" r="5" fill="white"/>
<circle cx="17.5" cy="101.5" r="5" fill="white"/>
<circle cx="24.5" cy="101.5" r="5" fill="white"/>
<circle cx="164.5" cy="101.5" r="5" fill="none" stroke="white" stroke-width="1"/>
<circle cx="171.5" cy="101.5" r="5" fill="white"/>
<circle cx="185.5" cy="101.5" r="5" fill="none" stroke="white" stroke-width="1"/>
<circle cx="199.5" cy="101.5" r="5" fill="none" stroke="white" stroke-width="1"/>
<circle cx="206.5" cy="101.5" r="5" fill="white"/>
<circle cx="213.5" cy="101.5" r="5" fill="white"/>
<circle cx="220.5" cy="101.5" r="5" fill="white"/>
<circle cx="227.5" cy="101.5" r="5" fill="none" stroke="white" stroke-width="1"/>
<circle cx="234.5" cy="101.5" r="5" fill="none" stroke="white" stroke-width="1"/>
<circle cx="241.5" cy="101.5" r="5" fill="none" stroke="white" stroke-width="1"/>
<circle cx="248.5" cy="101.5" r="5" fill="none" stroke="white" stroke-width="1"/>
<circle cx="255.5" cy="101.5" r="5" fill="none" stroke="white" stroke-width="1"/>
<circle cx="262.5" cy="101.5" r="5" fill="none" stroke="white" stroke-width="1"/>
<circle cx="150.5" cy="108.5" r="5" fill="white"/>
<circle cx="157.5" cy="108.5" r="5" fill="white"/>
<circle cx="164.5" cy="108.5" r="5" fill="white"/>
<circle cx="206.5" cy="108.5" r="5" fill="none" stroke="white" stroke-width="1"/>
<circle cx="213.5" cy="108.5" r="5" fill="none" stroke="white" stroke-width="1"/>
<circle cx="220.5" cy="108.5" r="5" fill="none" stroke="white" stroke-width="1"/>
<circle cx="227.5" cy="108.5" r="5" fill="white"/>
<circle cx="234.5" cy="108.5" r="5" fill="none" stroke="white" stroke-width="1"/>
<circle cx="241.5" cy="108.5" r="5" fill="none" stroke="white" stroke-width="1"/>
<circle cx="248.5" cy="108.5" r="5" fill="none" stroke="white" stroke-width="1"/>
<circle cx="255.5" cy="108.5" r="5" fill="none" stroke="white" stroke-width="1"/>
<circle cx="262.5" cy="108.5" r="5" fill="white"/>
<circle cx="17.5" cy="115.5" r="5" fill="none" stroke="white" stroke-width="1"/>
<circle cx="108.5" cy="115.5" r="5" fill="none" stroke="white" stroke-width="1"/>
<circle cx="150.5" cy="115.5" r="5" fill="white"/>
<circle cx="157.5" cy="115.5" r="5" fill="white"/>
<circle cx="185.5" cy="115.5" r="5" fill="none" stroke="white" stroke-width="1"/>
<circle cx="192.5" cy="115.5" r="5" fill="white"/>
<circle cx="213.5" cy="115.5" r="5" fill="none" stroke="white" stroke-width="1"/>
<circle cx="234.5" cy="115.5" r="5" fill="white"/>
<circle cx="241.5" cy="115.5" r="5" fill="none" stroke="white" stroke-width="1"/>
<circle cx="248.5" cy="115.5" r="5" fill="white"/>
<circle cx="255.5" cy="115.5" r="5" fill="none" stroke="white" stroke-width="1"/>
<circle cx="262.5" cy="115.5" r="5" fill="none" stroke="white" stroke-width="1"/>
<circle cx="269.5" cy="115.5" r="5" fill="none" stroke="white" stroke-width="1"/>
<circle cx="10.5" cy="122.5" r="5" fill="none" stroke="white" stroke-width="1"/>
<circle cx="157.5" cy="122.5" r="5" fill="none" stroke="white" stroke-width="1"/>
<circle cx="164.5" cy="122.5" r="5" fill="white"/>
<circle cx="171.5" cy="122.5" r="5" fill="white"/>
<circle cx="178.5" cy="122.5" r="5" fill="white"/>
<circle cx="185.5" cy="122.5" r="5" fill="none" stroke="white" stroke-width="1"/>
<circle cx="227.5" cy="122.5" r="5" fill="white"/>
<circle cx="234.5" cy="122.5" r="5" fill="white"/>
<circle cx="241.5" cy="122.5" r="5" fill="white"/>
<circle cx="248.5" cy="122.5" r="5" fill="white"/>
<circle cx="262.5" cy="122.5" r="5" fill="white"/>
<circle cx="17.5" cy="129.5" r="5" fill="none" stroke="white" stroke-width="1"/>
<circle cx="150.5" cy="129.5" r="5" fill="none" stroke="white" stroke-width="1"/>
<circle cx="157.5" cy="129.5" r="5" fill="white"/>
<circle cx="164.5" cy="129.5" r="5" fill="white"/>
<circle cx="171.5" cy="129.5" r="5" fill="white"/>
<circle cx="178.5" cy="129.5" r="5" fill="white"/>
<circle cx="185.5" cy="129.5" r="5" fill="white"/>
<circle cx="192.5" cy="129.5" r="5" fill="none" stroke="white" stroke-width="1"/>
<circle cx="199.5" cy="129.5" r="5" fill="none" stroke="white" stroke-width="1"/>
<circle cx="206.5" cy="129.5" r="5" fill="none" stroke="white" stroke-width="1"/>
<circle cx="213.5" cy="129.5" r="5" fill="none" stroke="white" stroke-width="1"/>
<circle cx="220.5" cy="129.5" r="5" fill="none" stroke="white" stroke-width="1"/>
<circle cx="227.5" cy="129.5" r="5" fill="none" stroke="white" stroke-width="1"/>
<circle cx="241.5" cy="129.5" r="5" fill="none" stroke="white" stroke-width="1"/>
<circle cx="248.5" cy="129.5" r="5" fill="white"/>
<circle cx="255.5" cy="129.5" r="5" fill="none" stroke="white" stroke-width="1"/>
<circle cx="262.5" cy="129.5" r="5" fill="none" stroke="white" stroke-width="1"/>
<circle cx="10.5" cy="136.5" r="5" fill="none" stroke="white" stroke-width="1"/>
<circle cx="24.5" cy="136.5" r="5" fill="none" stroke="white" stroke-width="1"/>
<circle cx="143.5" cy="136.5" r="5" fill="white"/>
<circle cx="150.5" cy="136.5" r="5" fill="none" stroke="white" stroke-width="1"/>
<circle cx="157.5" cy="136.5" r="5" fill="none" stroke="white" stroke-width="1"/>
<circle cx="164.5" cy="136.5" r="5" fill="none" stroke="white" stroke-width="1"/>
<circle cx="171.5" cy="136.5" r="5" fill="white"/>
<circle cx="178.5" cy="136.5" r="5" fill="white"/>
<circle cx="185.5" cy="136.5" r="5" fill="none" stroke="white" stroke-width="1"/>
<circle cx="192.5" cy="136.5" r="5" fill="white"/>
<circle cx="199.5" cy="136.5" r="5" fill="white"/>
<circle cx="206.5" cy="136.5" r="5" fill="white"/>
<circle cx="213.5" cy="136.5" r="5" fill="none" stroke="white" stroke-width="1"/>
<circle cx="220.5" cy="136.5" r="5" fill="none" stroke="white" stroke-width="1"/>
<circle cx="227.5" cy="136.5" r="5" fill="none" stroke="white" stroke-width="1"/>
<circle cx="234.5" cy="136.5" r="5" fill="white"/>
<circle cx="248.5" cy="136.5" r="5" fill="white"/>
<circle cx="255.5" cy="136.5" r="5" fill="white"/>
<circle cx="262.5" cy="136.5" r="5" fill="none" stroke="white" stroke-width="1"/>
<circle cx="31.5" cy="143.5" r="5" fill="none" stroke="white" stroke-width="1"/>
<circle cx="136.5" cy="143.5" r="5" fill="white"/>
<circle cx="143.5" cy="143.5" r="5" fill="white"/>
<circle cx="150.5" cy="143.5" r="5" fill="none" stroke="white" stroke-width="1"/>
<circle cx="157.5" cy="143.5" r="5" fill="none" stroke="white" stroke-width="1"/>
<circle cx="164.5" cy="143.5" r="5" fill="none" stroke="white" stroke-width="1"/>
<circle cx="171.5" cy="143.5" r="5" fill="white"/>
<circle cx="178.5" cy="143.5" r="5" fill="none" stroke="white" stroke-width="1"/>
<circle cx="185.5" cy="143.5" r="5" fill="white"/>
<circle cx="192.5" cy="143.5" r="5" fill="white"/>
<circle cx="199.5" cy="143.5" r="5" fill="white"/>
<circle cx="206.5" cy="143.5" r="5" fill="none" stroke="white" stroke-width="1"/>
<circle cx="213.5" cy="143.5" r="5" fill="white"/>
<circle cx="227.5" cy="143.5" r="5" fill="none" stroke="white" stroke-width="1"/>
<circle cx="234.5" cy="143.5" r="5" fill="none" stroke="white" stroke-width="1"/>
<circle cx="241.5" cy="143.5" r="5" fill="white"/>
<circle cx="17.5" cy="150.5" r="5" fill="none" stroke="white" stroke-width="1"/>
<circle cx="129.5" cy="150.5" r="5" fill="none" stroke="white" stroke-width="1"/>
<circle cx="136.5" cy="150.5" r="5" fill="white"/>
<circle cx="143.5" cy="150.5" r="5" fill="white"/>
<circle cx="150.5" cy="150.5" r="5" fill="none" stroke="white" stroke-width="1"/>
<circle cx="157.5" cy="150.5" r="5" fill="none" stroke="white" stroke-width="1"/>
<circle cx="164.5" cy="150.5" r="5" fill="none" stroke="white" stroke-width="1"/>
<circle cx="171.5" cy="150.5" r="5" fill="none" stroke="white" stroke-width="1"/>
<circle cx="178.5" cy="150.5" r="5" fill="none" stroke="white" stroke-width="1"/>
<circle cx="185.5" cy="150.5" r="5" fill="none" stroke="white" stroke-width="1"/>
<circle cx="192.5" cy="150.5" r="5" fill="white"/>
<circle cx="199.5" cy="150.5" r="5" fill="none" stroke="white" stroke-width="1"/>
<circle cx="206.5" cy="150.5" r="5" fill="none" stroke="white" stroke-width="1"/>
<circle cx="213.5" cy="150.5" r="5" fill="none" stroke="white" stroke-width="1"/>
<circle cx="220.5" cy="150.5" r="5" fill="none" stroke="white" stroke-width="1"/>
<circle cx="227.5" cy="150.5" r="5" fill="none" stroke="white" stroke-width="1"/>
<circle cx="234.5" cy="150.5" r="5" fill="none" stroke="white" stroke-width="1"/>
<circle cx="241.5" cy="150.5" r="5" fill="none" stroke="white" stroke-width="1"/>
<circle cx="248.5" cy="150.5" r="5" fill="none" stroke="white" stroke-width="1"/>
<circle cx="17.5" cy="157.5" r="5" fill="white"/>
<circle cx="24.5" cy="157.5" r="5" fill="white"/>
<circle cx="129.5" cy="157.5" r="5" fill="none" stroke="white" stroke-width="1"/>
<circle cx="136.5" cy="157.5" r="5" fill="none" stroke="white" stroke-width="1"/>
<circle cx="143.5" cy="157.5" r="5" fill="white"/>
<circle cx="150.5" cy="157.5" r="5" fill="none" stroke="white" stroke-width="1"/>
<circle cx="157.5" cy="157.5" r="5" fill="white"/>
<circle cx="164.5" cy="157.5" r="5" fill="none" stroke="white" stroke-width="1"/>
<circle cx="171.5" cy="157.5" r="5" fill="none" stroke="white" stroke-width="1"/>
<circle cx="178.5" cy="157.5" r="5" fill="white"/>
<circle cx="185.5" cy="157.5" r="5" fill="none" stroke="white" stroke-width="1"/>
<circle cx="192.5" cy="157.5" r="5" fill="none" stroke="white" stroke-width="1"/>
<circle cx="199.5" cy="157.5" r="5" fill="none" stroke="white" stroke-width="1"/>
<circle cx="206.5" cy="157.5" r="5" fill="white"/>
<circle cx="213.5" cy="157.5" r="5" fill="none" stroke="white" stroke-width="1"/>
<circle cx="220.5" cy="157.5" r="5" fill="none" stroke="white" stroke-width="1"/>
<circle cx="227.5" cy="157.5" r="5" fill="white"/>
<circle cx="234.5" cy="157.5" r="5" fill="none" stroke="white" stroke-width="1"/>
<circle cx="248.5" cy="157.5" r="5" fill="white"/>
<circle cx="17.5" cy="164.5" r="5" fill="white"/>
<circle cx="24.5" cy="164.5" r="5" fill="none" stroke="white" stroke-width="1"/>
<circle cx="31.5" cy="164.5" r="5" fill="white"/>
<circle cx="129.5" cy="164.5" r="5" fill="none" stroke="white" stroke-width="1"/>
<circle cx="143.5" cy="164.5" r="5" fill="white"/>
<circle cx="150.5" cy="164.5" r="5" fill="none" stroke="white" stroke-width="1"/>
<circle cx="157.5" cy="164.5" r="5" fill="none" stroke="white" stroke-width="1"/>
<circle cx="164.5" cy="164.5" r="5" fill="none" stroke="white" stroke-width="1"/>
<circle cx="171.5" cy="164.5" r="5" fill="white"/>
<circle cx="178.5" cy="164.5" r="5" fill="none" stroke="white" stroke-width="1"/>
<circle cx="185.5" cy="164.5" r="5" fill="none" stroke="white" stroke-width="1"/>
<circle cx="192.5" cy="164.5" r="5" fill="white"/>
<circle cx="199.5" cy="164.5" r="5" fill="white"/>
<circle cx="206.5" cy="164.5" r="5" fill="none" stroke="white" stroke-width="1"/>
<circle cx="213.5" cy="164.5" r="5" fill="none" stroke="white" stroke-width="1"/>
<circle cx="220.5" cy="164.5" r="5" fill="white"/>
<circle cx="227.5" cy="164.5" r="5" fill="white"/>
<circle cx="234.5" cy="164.5" r="5" fill="none" stroke="white" stroke-width="1"/>
<circle cx="241.5" cy="164.5" r="5" fill="none" stroke="white" stroke-width="1"/>
<circle cx="248.5" cy="164.5" r="5" fill="white"/>
<circle cx="255.5" cy="164.5" r="5" fill="none" stroke="white" stroke-width="1"/>
<circle cx="17.5" cy="171.5" r="5" fill="white"/>
<circle cx="24.5" cy="171.5" r="5" fill="none" stroke="white" stroke-width="1"/>
<circle cx="31.5" cy="171.5" r="5" fill="white"/>
<circle cx="129.5" cy="171.5" r="5" fill="none" stroke="white" stroke-width="1"/>
<circle cx="136.5" cy="171.5" r="5" fill="none" stroke="white" stroke-width="1"/>
<circle cx="143.5" cy="171.5" r="5" fill="white"/>
<circle cx="150.5" cy="171.5" r="5" fill="white"/>
<circle cx="157.5" cy="171.5" r="5" fill="none" stroke="white" stroke-width="1"/>
<circle cx="164.5" cy="171.5" r="5" fill="white"/>
<circle cx="171.5" cy="171.5" r="5" fill="white"/>
<circle cx="178.5" cy="171.5" r="5" fill="white"/>
<circle cx="185.5" cy="171.5" r="5" fill="none" stroke="white" stroke-width="1"/>
<circle cx="192.5" cy="171.5" r="5" fill="none" stroke="white" stroke-width="1"/>
<circle cx="199.5" cy="171.5" r="5" fill="none" stroke="white" stroke-width="1"/>
<circle cx="206.5" cy="171.5" r="5" fill="none" stroke="white" stroke-width="1"/>
<circle cx="213.5" cy="171.5" r="5" fill="none" stroke="white" stroke-width="1"/>
<circle cx="220.5" cy="171.5" r="5" fill="none" stroke="white" stroke-width="1"/>
<circle cx="227.5" cy="171.5" r="5" fill="none" stroke="white" stroke-width="1"/>
<circle cx="234.5" cy="171.5" r="5" fill="none" stroke="white" stroke-width="1"/>
<circle cx="241.5" cy="171.5" r="5" fill="none" stroke="white" stroke-width="1"/>
<circle cx="248.5" cy="171.5" r="5" fill="none" stroke="white" stroke-width="1"/>
<circle cx="17.5" cy="178.5" r="5" fill="none" stroke="white" stroke-width="1"/>
<circle cx="31.5" cy="178.5" r="5" fill="none" stroke="white" stroke-width="1"/>
<circle cx="38.5" cy="178.5" r="5" fill="none" stroke="white" stroke-width="1"/>
<circle cx="45.5" cy="178.5" r="5" fill="white"/>
<circle cx="136.5" cy="178.5" r="5" fill="none" stroke="white" stroke-width="1"/>
<circle cx="143.5" cy="178.5" r="5" fill="white"/>
<circle cx="150.5" cy="178.5" r="5" fill="none" stroke="white" stroke-width="1"/>
<circle cx="157.5" cy="178.5" r="5" fill="none" stroke="white" stroke-width="1"/>
<circle cx="164.5" cy="178.5" r="5" fill="white"/>
<circle cx="171.5" cy="178.5" r="5" fill="none" stroke="white" stroke-width="1"/>
<circle cx="178.5" cy="178.5" r="5" fill="white"/>
<circle cx="185.5" cy="178.5" r="5" fill="white"/>
<circle cx="192.5" cy="178.5" r="5" fill="none" stroke="white" stroke-width="1"/>
<circle cx="199.5" cy="178.5" r="5" fill="white"/>
<circle cx="206.5" cy="178.5" r="5" fill="white"/>
<circle cx="213.5" cy="178.5" r="5" fill="none" stroke="white" stroke-width="1"/>
<circle cx="220.5" cy="178.5" r="5" fill="white"/>
<circle cx="227.5" cy="178.5" r="5" fill="white"/>
<circle cx="241.5" cy="178.5" r="5" fill="none" stroke="white" stroke-width="1"/>
<circle cx="24.5" cy="185.5" r="5" fill="none" stroke="white" stroke-width="1"/>
<circle cx="31.5" cy="185.5" r="5" fill="white"/>
<circle cx="38.5" cy="185.5" r="5" fill="none" stroke="white" stroke-width="1"/>
<circle cx="45.5" cy="185.5" r="5" fill="none" stroke="white" stroke-width="1"/>
<circle cx="52.5" cy="185.5" r="5" fill="white"/>
<circle cx="192.5" cy="185.5" r="5" fill="none" stroke="white" stroke-width="1"/>
<circle cx="199.5" cy="185.5" r="5" fill="white"/>
<circle cx="206.5" cy="185.5" r="5" fill="white"/>
<circle cx="213.5" cy="185.5" r="5" fill="none" stroke="white" stroke-width="1"/>
<circle cx="220.5" cy="185.5" r="5" fill="white"/>
<circle cx="227.5" cy="185.5" r="5" fill="none" stroke="white" stroke-width="1"/>
<circle cx="234.5" cy="185.5" r="5" fill="none" stroke="white" stroke-width="1"/>
<circle cx="241.5" cy="185.5" r="5" fill="none" stroke="white" stroke-width="1"/>
<circle cx="24.5" cy="192.5" r="5" fill="white"/>
<circle cx="31.5" cy="192.5" r="5" fill="none" stroke="white" stroke-width="1"/>
<circle cx="38.5" cy="192.5" r="5" fill="none" stroke="white" stroke-width="1"/>
<circle cx="45.5" cy="192.5" r="5" fill="none" stroke="white" stroke-width="1"/>
<circle cx="52.5" cy="192.5" r="5" fill="none" stroke="white" stroke-width="1"/>
<circle cx="59.5" cy="192.5" r="5" fill="none" stroke="white" stroke-width="1"/>
<circle cx="66.5" cy="192.5" r="5" fill="none" stroke="white" stroke-width="1"/>
<circle cx="192.5" cy="192.5" r="5" fill="none" stroke="white" stroke-width="1"/>
<circle cx="199.5" cy="192.5" r="5" fill="none" stroke="white" stroke-width="1"/>
<circle cx="206.5" cy="192.5" r="5" fill="white"/>
<circle cx="213.5" cy="192.5" r="5" fill="none" stroke="white" stroke-width="1"/>
<circle cx="220.5" cy="192.5" r="5" fill="none" stroke="white" stroke-width="1"/>
<circle cx="227.5" cy="192.5" r="5" fill="none" stroke="white" stroke-width="1"/>
<circle cx="234.5" cy="192.5" r="5" fill="none" stroke="white" stroke-width="1"/>
<circle cx="241.5" cy="192.5" r="5" fill="none" stroke="white" stroke-width="1"/>
<circle cx="31.5" cy="199.5" r="5" fill="none" stroke="white" stroke-width="1"/>
<circle cx="38.5" cy="199.5" r="5" fill="white"/>
<circle cx="45.5" cy="199.5" r="5" fill="none" stroke="white" stroke-width="1"/>
<circle cx="52.5" cy="199.5" r="5" fill="none" stroke="white" stroke-width="1"/>
<circle cx="59.5" cy="199.5" r="5" fill="none" stroke="white" stroke-width="1"/>
<circle cx="66.5" cy="199.5" r="5" fill="none" stroke="white" stroke-width="1"/>
<circle cx="73.5" cy="199.5" r="5" fill="none" stroke="white" stroke-width="1"/>
<circle cx="80.5" cy="199.5" r="5" fill="none" stroke="white" stroke-width="1"/>
<circle cx="199.5" cy="199.5" r="5" fill="white"/>
<circle cx="206.5" cy="199.5" r="5" fill="none" stroke="white" stroke-width="1"/>
<circle cx="213.5" cy="199.5" r="5" fill="none" stroke="white" stroke-width="1"/>
<circle cx="220.5" cy="199.5" r="5" fill="none" stroke="white" stroke-width="1"/>
<circle cx="227.5" cy="199.5" r="5" fill="white"/>
<circle cx="234.5" cy="199.5" r="5" fill="white"/>
<circle cx="241.5" cy="199.5" r="5" fill="white"/>
<circle cx="31.5" cy="206.5" r="5" fill="white"/>
<circle cx="38.5" cy="206.5" r="5" fill="none" stroke="white" stroke-width="1"/>
<circle cx="45.5" cy="206.5" r="5" fill="white"/>
<circle cx="52.5" cy="206.5" r="5" fill="none" stroke="white" stroke-width="1"/>
<circle cx="59.5" cy="206.5" r="5" fill="none" stroke="white" stroke-width="1"/>
<circle cx="66.5" cy="206.5" r="5" fill="none" stroke="white" stroke-width="1"/>
<circle cx="73.5" cy="206.5" r="5" fill="white"/>
<circle cx="80.5" cy="206.5" r="5" fill="none" stroke="white" stroke-width="1"/>
<circle cx="199.5" cy="206.5" r="5" fill="none" stroke="white" stroke-width="1"/>
<circle cx="206.5" cy="206.5" r="5" fill="white"/>
<circle cx="213.5" cy="206.5" r="5" fill="none" stroke="white" stroke-width="1"/>
<circle cx="220.5" cy="206.5" r="5" fill="white"/>
<circle cx="227.5" cy="206.5" r="5" fill="white"/>
<circle cx="234.5" cy="206.5" r="5" fill="none" stroke="white" stroke-width="1"/>
<circle cx="248.5" cy="206.5" r="5" fill="white"/>
<circle cx="38.5" cy="213.5" r="5" fill="white"/>
<circle cx="45.5" cy="213.5" r="5" fill="white"/>
<circle cx="52.5" cy="213.5" r="5" fill="white"/>
<circle cx="59.5" cy="213.5" r="5" fill="none" stroke="white" stroke-width="1"/>
<circle cx="66.5" cy="213.5" r="5" fill="white"/>
<circle cx="73.5" cy="213.5" r="5" fill="white"/>
<circle cx="192.5" cy="213.5" r="5" fill="white"/>
<circle cx="199.5" cy="213.5" r="5" fill="white"/>
<circle cx="206.5" cy="213.5" r="5" fill="none" stroke="white" stroke-width="1"/>
<circle cx="213.5" cy="213.5" r="5" fill="none" stroke="white" stroke-width="1"/>
<circle cx="220.5" cy="213.5" r="5" fill="white"/>
<circle cx="227.5" cy="213.5" r="5" fill="white"/>
<circle cx="241.5" cy="213.5" r="5" fill="white"/>
<circle cx="45.5" cy="220.5" r="5" fill="none" stroke="white" stroke-width="1"/>
<circle cx="52.5" cy="220.5" r="5" fill="white"/>
<circle cx="59.5" cy="220.5" r="5" fill="none" stroke="white" stroke-width="1"/>
<circle cx="66.5" cy="220.5" r="5" fill="none" stroke="white" stroke-width="1"/>
<circle cx="73.5" cy="220.5" r="5" fill="white"/>
<circle cx="80.5" cy="220.5" r="5" fill="white"/>
<circle cx="192.5" cy="220.5" r="5" fill="none" stroke="white" stroke-width="1"/>
<circle cx="199.5" cy="220.5" r="5" fill="white"/>
<circle cx="206.5" cy="220.5" r="5" fill="none" stroke="white" stroke-width="1"/>
<circle cx="213.5" cy="220.5" r="5" fill="none" stroke="white" stroke-width="1"/>
<circle cx="220.5" cy="220.5" r="5" fill="white"/>
<circle cx="227.5" cy="220.5" r="5" fill="none" stroke="white" stroke-width="1"/>
<circle cx="45.5" cy="227.5" r="5" fill="none" stroke="white" stroke-width="1"/>
<circle cx="52.5" cy="227.5" r="5" fill="none" stroke="white" stroke-width="1"/>
<circle cx="59.5" cy="227.5" r="5" fill="none" stroke="white" stroke-width="1"/>
<circle cx="66.5" cy="227.5" r="5" fill="none" stroke="white" stroke-width="1"/>
<circle cx="192.5" cy="227.5" r="5" fill="none" stroke="white" stroke-width="1"/>
<circle cx="199.5" cy="227.5" r="5" fill="none" stroke="white" stroke-width="1"/>
<circle cx="206.5" cy="227.5" r="5" fill="none" stroke="white" stroke-width="1"/>
<circle cx="213.5" cy="227.5" r="5" fill="white"/>
<circle cx="220.5" cy="227.5" r="5" fill="white"/>
<circle cx="52.5" cy="234.5" r="5" fill="none" stroke="white" stroke-width="1"/>
<circle cx="59.5" cy="234.5" r="5" fill="none" stroke="white" stroke-width="1"/>
<circle cx="66.5" cy="234.5" r="5" fill="white"/>
<circle cx="206.5" cy="234.5" r="5" fill="none" stroke="white" stroke-width="1"/>
<circle cx="213.5" cy="234.5" r="5" fill="none" stroke="white" stroke-width="1"/>
<circle cx="59.5" cy="241.5" r="5" fill="none" stroke="white" stroke-width="1"/>
<circle cx="66.5" cy="241.5" r="5" fill="white"/>
<circle cx="66.5" cy="248.5" r="5" fill="none" stroke="white" stroke-width="1"/>
</svg>